<?xml version="1.0" standalone="no"?>
<!DOCTYPE svg PUBLIC "-//W3C//DTD SVG 20010904//EN"
 "http://www.w3.org/TR/2001/REC-SVG-20010904/DTD/svg10.dtd">
<svg version="1.0" xmlns="http://www.w3.org/2000/svg"
 width="100.000000pt" height="100.000000pt" viewBox="0 0 100.000000 100.000000"
 preserveAspectRatio="xMidYMid meet">

<g transform="translate(0.000000,100.000000) scale(0.100000,-0.100000)"
fill="#000000" stroke="none">
<path d="M386 944 c-224 -54 -376 -287 -338 -516 62 -368 512 -515 773 -253
329 330 18 879 -435 769z m219 -39 c312 -81 418 -473 191 -701 -241 -240 -651
-107 -709 230 -50 295 226 546 518 471z"/>
<path d="M350 500 l0 -180 83 0 c149 0 211 53 211 180 0 127 -62 180 -211 180
l-83 0 0 -180z m180 127 c13 -7 35 -28 48 -47 20 -29 23 -44 20 -93 -4 -49 -9
-63 -36 -89 -27 -28 -40 -33 -97 -36 l-65 -4 0 141 0 141 53 0 c28 0 63 -6 77
-13z"/>
</g>
</svg>
